<svg width="320" height="240" viewBox="0 0 320 240" fill="none" xmlns="http://www.w3.org/2000/svg">
<rect width="320" height="240" fill="white"/>
<path d="M237.932 126V117.6H239.068V124.272L244.684 117.6H245.692V126H244.556V119.312L238.956 126H237.932Z" fill="#0F0F0F"/>
<path d="M226.916 126V117.6H228.052V124.272L233.668 117.6H234.676V126H233.54V119.312L227.94 126H226.916Z" fill="#0F0F0F"/>
<path d="M215.979 126V117.6H217.115V125.008H222.251V117.6H223.387V126H215.979ZM223.675 128.032V125.904L223.963 126H222.251V125.008H224.747V128.032H223.675Z" fill="#0F0F0F"/>
<path d="M211.866 126V124.144L211.818 123.84V120.736C211.818 120.021 211.616 119.472 211.21 119.088C210.816 118.704 210.224 118.512 209.434 118.512C208.89 118.512 208.373 118.603 207.882 118.784C207.392 118.965 206.976 119.205 206.634 119.504L206.122 118.656C206.549 118.293 207.061 118.016 207.658 117.824C208.256 117.621 208.885 117.52 209.546 117.52C210.634 117.52 211.472 117.792 212.058 118.336C212.656 118.869 212.954 119.685 212.954 120.784V126H211.866ZM208.97 126.08C208.341 126.08 207.792 125.979 207.322 125.776C206.864 125.563 206.512 125.275 206.266 124.912C206.021 124.539 205.898 124.112 205.898 123.632C205.898 123.195 206 122.8 206.202 122.448C206.416 122.085 206.757 121.797 207.226 121.584C207.706 121.36 208.346 121.248 209.146 121.248H212.042V122.096H209.178C208.368 122.096 207.802 122.24 207.482 122.528C207.173 122.816 207.018 123.173 207.018 123.6C207.018 124.08 207.205 124.464 207.578 124.752C207.952 125.04 208.474 125.184 209.146 125.184C209.786 125.184 210.336 125.04 210.794 124.752C211.264 124.453 211.605 124.027 211.818 123.472L212.074 124.256C211.861 124.811 211.488 125.253 210.954 125.584C210.432 125.915 209.77 126.08 208.97 126.08Z" fill="#0F0F0F"/>
<path d="M200.065 126.08C199.339 126.08 198.683 125.915 198.097 125.584C197.51 125.243 197.041 124.757 196.689 124.128C196.347 123.488 196.177 122.709 196.177 121.792C196.177 120.875 196.347 120.101 196.689 119.472C197.03 118.832 197.494 118.347 198.081 118.016C198.667 117.685 199.329 117.52 200.065 117.52C200.865 117.52 201.579 117.701 202.209 118.064C202.849 118.416 203.35 118.917 203.713 119.568C204.075 120.208 204.257 120.949 204.257 121.792C204.257 122.645 204.075 123.392 203.713 124.032C203.35 124.672 202.849 125.173 202.209 125.536C201.579 125.899 200.865 126.08 200.065 126.08ZM195.729 129.104V117.6H196.817V120.128L196.705 121.808L196.865 123.504V129.104H195.729ZM199.985 125.072C200.582 125.072 201.115 124.939 201.585 124.672C202.054 124.395 202.427 124.011 202.705 123.52C202.982 123.019 203.121 122.443 203.121 121.792C203.121 121.141 202.982 120.571 202.705 120.08C202.427 119.589 202.054 119.205 201.585 118.928C201.115 118.651 200.582 118.512 199.985 118.512C199.387 118.512 198.849 118.651 198.369 118.928C197.899 119.205 197.526 119.589 197.249 120.08C196.982 120.571 196.849 121.141 196.849 121.792C196.849 122.443 196.982 123.019 197.249 123.52C197.526 124.011 197.899 124.395 198.369 124.672C198.849 124.939 199.387 125.072 199.985 125.072Z" fill="#0F0F0F"/>
<path d="M189.437 126.08C188.563 126.08 187.795 125.899 187.133 125.536C186.472 125.163 185.955 124.656 185.581 124.016C185.208 123.365 185.021 122.624 185.021 121.792C185.021 120.96 185.197 120.224 185.549 119.584C185.912 118.944 186.403 118.443 187.021 118.08C187.651 117.707 188.355 117.52 189.133 117.52C189.923 117.52 190.621 117.701 191.229 118.064C191.848 118.416 192.333 118.917 192.685 119.568C193.037 120.208 193.213 120.949 193.213 121.792C193.213 121.845 193.208 121.904 193.197 121.968C193.197 122.021 193.197 122.08 193.197 122.144H185.885V121.296H192.589L192.141 121.632C192.141 121.024 192.008 120.485 191.741 120.016C191.485 119.536 191.133 119.163 190.685 118.896C190.237 118.629 189.72 118.496 189.133 118.496C188.557 118.496 188.04 118.629 187.581 118.896C187.123 119.163 186.765 119.536 186.509 120.016C186.253 120.496 186.125 121.045 186.125 121.664V121.84C186.125 122.48 186.264 123.045 186.541 123.536C186.829 124.016 187.224 124.395 187.725 124.672C188.237 124.939 188.819 125.072 189.469 125.072C189.981 125.072 190.456 124.981 190.893 124.8C191.341 124.619 191.725 124.341 192.045 123.968L192.685 124.704C192.312 125.152 191.843 125.493 191.277 125.728C190.723 125.963 190.109 126.08 189.437 126.08Z" fill="#0F0F0F"/>
<path d="M175.041 126V117.6H176.177V121.312H181.473V117.6H182.609V126H181.473V122.288H176.177V126H175.041Z" fill="#0F0F0F"/>
<path d="M168.75 126.08C167.875 126.08 167.107 125.899 166.446 125.536C165.785 125.163 165.267 124.656 164.894 124.016C164.521 123.365 164.334 122.624 164.334 121.792C164.334 120.96 164.51 120.224 164.862 119.584C165.225 118.944 165.715 118.443 166.334 118.08C166.963 117.707 167.667 117.52 168.446 117.52C169.235 117.52 169.934 117.701 170.542 118.064C171.161 118.416 171.646 118.917 171.998 119.568C172.35 120.208 172.526 120.949 172.526 121.792C172.526 121.845 172.521 121.904 172.51 121.968C172.51 122.021 172.51 122.08 172.51 122.144H165.198V121.296H171.902L171.454 121.632C171.454 121.024 171.321 120.485 171.054 120.016C170.798 119.536 170.446 119.163 169.998 118.896C169.55 118.629 169.033 118.496 168.446 118.496C167.87 118.496 167.353 118.629 166.894 118.896C166.435 119.163 166.078 119.536 165.822 120.016C165.566 120.496 165.438 121.045 165.438 121.664V121.84C165.438 122.48 165.577 123.045 165.854 123.536C166.142 124.016 166.537 124.395 167.038 124.672C167.55 124.939 168.131 125.072 168.782 125.072C169.294 125.072 169.769 124.981 170.206 124.8C170.654 124.619 171.038 124.341 171.358 123.968L171.998 124.704C171.625 125.152 171.155 125.493 170.59 125.728C170.035 125.963 169.422 126.08 168.75 126.08Z" fill="#0F0F0F"/>
<path d="M157.947 126V117.6H163.899V118.592H158.795L159.083 118.304V126H157.947Z" fill="#0F0F0F"/>
<path d="M147.797 126V118.288L148.085 118.592H144.613V117.6H152.117V118.592H148.645L148.933 118.288V126H147.797Z" fill="#0F0F0F"/>
<path d="M142.085 126V124.144L142.037 123.84V120.736C142.037 120.021 141.835 119.472 141.429 119.088C141.035 118.704 140.443 118.512 139.653 118.512C139.109 118.512 138.592 118.603 138.101 118.784C137.611 118.965 137.195 119.205 136.853 119.504L136.341 118.656C136.768 118.293 137.28 118.016 137.877 117.824C138.475 117.621 139.104 117.52 139.765 117.52C140.853 117.52 141.691 117.792 142.277 118.336C142.875 118.869 143.173 119.685 143.173 120.784V126H142.085ZM139.189 126.08C138.56 126.08 138.011 125.979 137.541 125.776C137.083 125.563 136.731 125.275 136.485 124.912C136.24 124.539 136.117 124.112 136.117 123.632C136.117 123.195 136.219 122.8 136.421 122.448C136.635 122.085 136.976 121.797 137.445 121.584C137.925 121.36 138.565 121.248 139.365 121.248H142.261V122.096H139.397C138.587 122.096 138.021 122.24 137.701 122.528C137.392 122.816 137.237 123.173 137.237 123.6C137.237 124.08 137.424 124.464 137.797 124.752C138.171 125.04 138.693 125.184 139.365 125.184C140.005 125.184 140.555 125.04 141.013 124.752C141.483 124.453 141.824 124.027 142.037 123.472L142.293 124.256C142.08 124.811 141.707 125.253 141.173 125.584C140.651 125.915 139.989 126.08 139.189 126.08Z" fill="#0F0F0F"/>
<path d="M130.907 126V118.288L131.195 118.592H127.723V117.6H135.227V118.592H131.755L132.043 118.288V126H130.907Z" fill="#0F0F0F"/>
<path d="M124.751 120.56C125.807 120.57 126.607 120.805 127.151 121.264C127.705 121.722 127.983 122.384 127.983 123.248C127.983 124.144 127.684 124.832 127.087 125.312C126.5 125.792 125.647 126.026 124.527 126.016L121.135 126V117.6H122.271V120.528L124.751 120.56ZM124.463 125.152C125.241 125.162 125.828 125.008 126.223 124.688C126.628 124.357 126.831 123.877 126.831 123.248C126.831 122.618 126.633 122.16 126.239 121.872C125.844 121.573 125.252 121.418 124.463 121.408L122.271 121.376V125.12L124.463 125.152Z" fill="#0F0F0F"/>
<path d="M109.488 125.984L109.568 125.008C109.643 125.018 109.712 125.034 109.776 125.056C109.851 125.066 109.915 125.072 109.968 125.072C110.31 125.072 110.582 124.944 110.784 124.688C110.998 124.432 111.158 124.09 111.264 123.664C111.371 123.237 111.446 122.757 111.488 122.224C111.531 121.68 111.568 121.136 111.6 120.592L111.744 117.6H117.904V126H116.768V118.256L117.056 118.592H112.48L112.752 118.24L112.624 120.672C112.592 121.397 112.534 122.09 112.448 122.752C112.374 123.413 112.251 123.994 112.08 124.496C111.92 124.997 111.696 125.392 111.408 125.68C111.12 125.957 110.752 126.096 110.304 126.096C110.176 126.096 110.043 126.085 109.904 126.064C109.776 126.042 109.638 126.016 109.488 125.984Z" fill="#0F0F0F"/>
<path d="M102.607 129.184C102.212 129.184 101.833 129.12 101.471 128.992C101.119 128.864 100.815 128.672 100.559 128.416L101.087 127.568C101.3 127.77 101.529 127.925 101.775 128.032C102.031 128.149 102.313 128.208 102.623 128.208C102.996 128.208 103.316 128.101 103.583 127.888C103.86 127.685 104.121 127.322 104.367 126.8L104.911 125.568L105.039 125.392L108.495 117.6H109.615L105.407 127.008C105.172 127.552 104.911 127.984 104.623 128.304C104.345 128.624 104.041 128.848 103.711 128.976C103.38 129.114 103.012 129.184 102.607 129.184ZM104.847 126.24L100.975 117.6H102.159L105.583 125.312L104.847 126.24Z" fill="#0F0F0F"/>
<path d="M96.1713 126.096C95.5633 126.096 94.9606 126.011 94.3633 125.84C93.766 125.669 93.238 125.408 92.7793 125.056L93.1473 124.208C93.5526 124.507 94.022 124.736 94.5553 124.896C95.0886 125.045 95.6166 125.12 96.1393 125.12C96.662 125.109 97.1153 125.035 97.4993 124.896C97.8833 124.757 98.182 124.565 98.3953 124.32C98.6086 124.075 98.7153 123.797 98.7153 123.488C98.7153 123.04 98.5126 122.693 98.1073 122.448C97.702 122.192 97.1473 122.064 96.4433 122.064H95.0033V121.232H96.3633C96.7793 121.232 97.1473 121.179 97.4673 121.072C97.7873 120.965 98.0326 120.811 98.2033 120.608C98.3846 120.405 98.4753 120.165 98.4753 119.888C98.4753 119.589 98.3686 119.333 98.1553 119.12C97.9526 118.907 97.67 118.747 97.3073 118.64C96.9446 118.533 96.534 118.48 96.0753 118.48C95.6593 118.491 95.2273 118.555 94.7793 118.672C94.3313 118.779 93.8886 118.944 93.4513 119.168L93.1313 118.288C93.622 118.032 94.1073 117.84 94.5873 117.712C95.078 117.573 95.5686 117.504 96.0593 117.504C96.7313 117.483 97.334 117.563 97.8673 117.744C98.4113 117.925 98.8433 118.187 99.1633 118.528C99.4833 118.859 99.6433 119.259 99.6433 119.728C99.6433 120.144 99.5153 120.507 99.2593 120.816C99.0033 121.125 98.662 121.365 98.2353 121.536C97.8086 121.707 97.3233 121.792 96.7793 121.792L96.8273 121.488C97.7873 121.488 98.534 121.675 99.0673 122.048C99.6113 122.421 99.8833 122.928 99.8833 123.568C99.8833 124.069 99.718 124.512 99.3873 124.896C99.0566 125.269 98.6086 125.563 98.0433 125.776C97.4886 125.989 96.8646 126.096 96.1713 126.096Z" fill="#0F0F0F"/>
<path d="M87.8594 126.08C86.9847 126.08 86.2167 125.899 85.5554 125.536C84.894 125.163 84.3767 124.656 84.0034 124.016C83.63 123.365 83.4434 122.624 83.4434 121.792C83.4434 120.96 83.6194 120.224 83.9714 119.584C84.334 118.944 84.8247 118.443 85.4434 118.08C86.0727 117.707 86.7767 117.52 87.5554 117.52C88.3447 117.52 89.0434 117.701 89.6514 118.064C90.27 118.416 90.7554 118.917 91.1074 119.568C91.4594 120.208 91.6354 120.949 91.6354 121.792C91.6354 121.845 91.63 121.904 91.6194 121.968C91.6194 122.021 91.6194 122.08 91.6194 122.144H84.3074V121.296H91.0114L90.5634 121.632C90.5634 121.024 90.43 120.485 90.1634 120.016C89.9074 119.536 89.5554 119.163 89.1074 118.896C88.6594 118.629 88.142 118.496 87.5554 118.496C86.9794 118.496 86.462 118.629 86.0034 118.896C85.5447 119.163 85.1874 119.536 84.9314 120.016C84.6754 120.496 84.5474 121.045 84.5474 121.664V121.84C84.5474 122.48 84.686 123.045 84.9634 123.536C85.2514 124.016 85.646 124.395 86.1474 124.672C86.6594 124.939 87.2407 125.072 87.8914 125.072C88.4034 125.072 88.878 124.981 89.3154 124.8C89.7634 124.619 90.1474 124.341 90.4674 123.968L91.1074 124.704C90.734 125.152 90.2647 125.493 89.6994 125.728C89.1447 125.963 88.5314 126.08 87.8594 126.08Z" fill="#0F0F0F"/>
<path d="M73.3906 126V114.8H77.5826C78.532 114.8 79.348 114.954 80.0306 115.264C80.7133 115.562 81.236 116 81.5986 116.576C81.972 117.141 82.1586 117.829 82.1586 118.64C82.1586 119.429 81.972 120.112 81.5986 120.688C81.236 121.253 80.7133 121.69 80.0306 122C79.348 122.309 78.532 122.464 77.5826 122.464H74.0466L74.5746 121.904V126H73.3906ZM74.5746 122L74.0466 121.424H77.5506C78.6706 121.424 79.5186 121.184 80.0946 120.704C80.6813 120.213 80.9746 119.525 80.9746 118.64C80.9746 117.744 80.6813 117.05 80.0946 116.56C79.5186 116.069 78.6706 115.824 77.5506 115.824H74.0466L74.5746 115.264V122Z" fill="#0F0F0F"/>
</svg>
