<svg width="143" height="34" viewBox="0 0 143 34" fill="none" xmlns="http://www.w3.org/2000/svg"><path d="M102.082 34V0H111.532L125.172 22.1971H120.203L133.453 0H142.903L143.001 34H132.528L132.43 15.7371H134.086L125.026 30.94H119.96L110.509 15.7371H112.555V34H102.082Z" fill="#ffffff"/><path d="M0 34V0H18.2186C22.9275 0 26.4023 0.841905 28.6431 2.52572C30.8839 4.17714 32.0043 6.2981 32.0043 8.88857C32.0043 10.6048 31.5172 12.1429 30.5429 13.5029C29.6011 14.8305 28.221 15.8829 26.4023 16.66C24.5837 17.4371 22.3429 17.8257 19.68 17.8257L20.6542 15.2029C23.3172 15.2029 25.6067 15.5752 27.5227 16.32C29.4712 17.0648 30.9651 18.1495 32.0043 19.5743C33.076 20.9667 33.6118 22.6505 33.6118 24.6257C33.6118 27.5724 32.3778 29.8714 29.9097 31.5229C27.474 33.1743 23.9018 34 19.1928 34H0ZM11.3014 25.9857H18.2186C19.4851 25.9857 20.4269 25.759 21.0439 25.3057C21.6934 24.8524 22.0182 24.1886 22.0182 23.3143C22.0182 22.44 21.6934 21.7762 21.0439 21.3229C20.4269 20.8695 19.4851 20.6429 18.2186 20.6429H10.522V13.0657H16.6598C17.9588 13.0657 18.9006 12.8552 19.4851 12.4343C20.1022 11.981 20.4107 11.3495 20.4107 10.54C20.4107 9.6981 20.1022 9.06667 19.4851 8.64572C18.9006 8.22476 17.9588 8.01429 16.6598 8.01429H11.3014V25.9857Z" fill="#ffffff"/><path d="M66.6307 19.4286C66.6307 27.4762 59.7244 34 51.205 34C42.6856 34 35.7793 27.4762 35.7793 19.4286C35.7793 11.381 42.6856 4.85718 51.205 4.85718C59.7244 4.85718 66.6307 11.381 66.6307 19.4286Z" fill="#7137FF"/><path d="M99.1054 19.4286C99.1054 27.4762 92.199 34 83.6796 34C75.1602 34 68.2539 27.4762 68.2539 19.4286C68.2539 11.381 75.1602 4.85718 83.6796 4.85718C92.199 4.85718 99.1054 11.381 99.1054 19.4286Z" fill="#7137FF"/></svg>