<svg width="40" height="40" viewBox="0 0 40 40" fill="none" xmlns="http://www.w3.org/2000/svg"><path d="M40 20C40 31.0457 31.0457 40 20 40C8.9543 40 0 31.0457 0 20C0 8.9543 8.9543 0 20 0C31.0457 0 40 8.9543 40 20Z" fill="#7137FF"/><path d="M8 15.5C8 14.6716 8.67157 14 9.5 14H30.5C31.3284 14 32 14.6716 32 15.5V15.5C32 16.3284 31.3284 17 30.5 17H9.5C8.67157 17 8 16.3284 8 15.5V15.5Z" fill="white"/><path d="M8 20.5C8 19.6716 8.67157 19 9.5 19H30.5C31.3284 19 32 19.6716 32 20.5V20.5C32 21.3284 31.3284 22 30.5 22H9.5C8.67157 22 8 21.3284 8 20.5V20.5Z" fill="white"/><path d="M8 25.5C8 24.6716 8.67157 24 9.5 24H30.5C31.3284 24 32 24.6716 32 25.5V25.5C32 26.3284 31.3284 27 30.5 27H9.5C8.67157 27 8 26.3284 8 25.5V25.5Z" fill="white"/></svg>