<svg width="40" height="40" viewBox="0 0 40 40" fill="none" xmlns="http://www.w3.org/2000/svg"><path d="M40 20C40 31.0457 31.0457 40 20 40C8.9543 40 0 31.0457 0 20C0 8.9543 8.9543 0 20 0C31.0457 0 40 8.9543 40 20Z" fill="#7137FF"/><path d="M11.0604 11.0607C11.6462 10.4749 12.596 10.4749 13.1818 11.0607L28.031 25.9099C28.6168 26.4957 28.6168 27.4454 28.031 28.0312V28.0312C27.4452 28.617 26.4955 28.617 25.9097 28.0312L11.0604 13.182C10.4746 12.5962 10.4746 11.6464 11.0604 11.0607V11.0607Z" fill="white"/><path d="M11.0607 28.0314C10.4749 27.4456 10.4749 26.4958 11.0607 25.91L25.9099 11.0608C26.4957 10.475 27.4454 10.475 28.0312 11.0608V11.0608C28.617 11.6466 28.617 12.5963 28.0312 13.1821L13.182 28.0314C12.5962 28.6171 11.6464 28.6171 11.0607 28.0314V28.0314Z" fill="white"/></svg>